<mxfile host="app.diagrams.net" agent="Mozilla/5.0 (Macintosh; Intel Mac OS X 10_15_7) AppleWebKit/537.36 (KHTML, like Gecko) Chrome/131.0.0.0 Safari/537.36 Edg/131.0.0.0" version="26.0.4">
  <diagram name="第 1 页" id="sDF07C9e6ozfiKW4VOYb">
    <mxGraphModel dx="19851" dy="11794" grid="0" gridSize="10" guides="1" tooltips="1" connect="1" arrows="1" fold="1" page="1" pageScale="1" pageWidth="850" pageHeight="1100" math="0" shadow="0">
      <root>
        <mxCell id="0" />
        <mxCell id="1" parent="0" />
        <mxCell id="2mVbCAliY_CCTs2_K3Rx-171" value="" style="group" vertex="1" connectable="0" parent="1">
          <mxGeometry x="-18534" y="-10982" width="111" height="100" as="geometry" />
        </mxCell>
        <mxCell id="2mVbCAliY_CCTs2_K3Rx-172" value="" style="rounded=1;whiteSpace=wrap;html=1;strokeWidth=2;fillColor=#F7FFFE;strokeColor=#0e8088;" vertex="1" parent="2mVbCAliY_CCTs2_K3Rx-171">
          <mxGeometry x="4" y="5" width="107" height="81" as="geometry" />
        </mxCell>
        <mxCell id="2mVbCAliY_CCTs2_K3Rx-173" style="rounded=0;orthogonalLoop=1;jettySize=auto;html=1;endArrow=openThin;endFill=0;strokeColor=#82b366;strokeWidth=2;fillColor=#d5e8d4;endSize=3;entryX=0;entryY=0.5;entryDx=0;entryDy=0;exitX=1;exitY=0.5;exitDx=0;exitDy=0;" edge="1" parent="2mVbCAliY_CCTs2_K3Rx-171" source="2mVbCAliY_CCTs2_K3Rx-174" target="2mVbCAliY_CCTs2_K3Rx-176">
          <mxGeometry relative="1" as="geometry">
            <mxPoint x="59.41764705882353" y="22.60273972602732" as="sourcePoint" />
            <mxPoint x="75.08823529411765" y="27.134246575342377" as="targetPoint" />
          </mxGeometry>
        </mxCell>
        <mxCell id="2mVbCAliY_CCTs2_K3Rx-174" value="" style="ellipse;whiteSpace=wrap;html=1;aspect=fixed;strokeWidth=2;fillColor=#b1ddf0;strokeColor=#10739e;" vertex="1" parent="2mVbCAliY_CCTs2_K3Rx-171">
          <mxGeometry x="42.44117647058824" y="22.698630136986225" width="13.058823529411764" height="13.058823529411764" as="geometry" />
        </mxCell>
        <mxCell id="2mVbCAliY_CCTs2_K3Rx-175" style="rounded=0;orthogonalLoop=1;jettySize=auto;html=1;endArrow=openThin;endFill=0;strokeColor=#82b366;strokeWidth=2;fillColor=#d5e8d4;endSize=3;entryX=1;entryY=0.5;entryDx=0;entryDy=0;exitX=0;exitY=0.5;exitDx=0;exitDy=0;" edge="1" parent="2mVbCAliY_CCTs2_K3Rx-171" source="2mVbCAliY_CCTs2_K3Rx-177" target="2mVbCAliY_CCTs2_K3Rx-178">
          <mxGeometry relative="1" as="geometry">
            <mxPoint x="82.27058823529411" y="45.369863013698556" as="sourcePoint" />
            <mxPoint x="75.74117647058824" y="56.16438356164383" as="targetPoint" />
          </mxGeometry>
        </mxCell>
        <mxCell id="2mVbCAliY_CCTs2_K3Rx-176" value="" style="ellipse;whiteSpace=wrap;html=1;aspect=fixed;strokeWidth=2;fillColor=#b1ddf0;strokeColor=#10739e;" vertex="1" parent="2mVbCAliY_CCTs2_K3Rx-171">
          <mxGeometry x="76.39411764705882" y="16.452054794520475" width="13.058823529411764" height="13.058823529411764" as="geometry" />
        </mxCell>
        <mxCell id="2mVbCAliY_CCTs2_K3Rx-177" value="" style="ellipse;whiteSpace=wrap;html=1;aspect=fixed;strokeWidth=2;fillColor=#b1ddf0;strokeColor=#10739e;" vertex="1" parent="2mVbCAliY_CCTs2_K3Rx-171">
          <mxGeometry x="65.29411764705883" y="50.84931506849308" width="13.058823529411764" height="13.058823529411764" as="geometry" />
        </mxCell>
        <mxCell id="2mVbCAliY_CCTs2_K3Rx-178" value="" style="ellipse;whiteSpace=wrap;html=1;aspect=fixed;strokeWidth=2;fillColor=#b1ddf0;strokeColor=#10739e;" vertex="1" parent="2mVbCAliY_CCTs2_K3Rx-171">
          <mxGeometry x="28.076470588235296" y="40.83561643835609" width="13.058823529411764" height="13.058823529411764" as="geometry" />
        </mxCell>
        <mxCell id="2mVbCAliY_CCTs2_K3Rx-179" value="&lt;font&gt;&lt;b&gt;&lt;span style=&quot;color: light-dark(rgb(0, 0, 0), rgb(255, 255, 255)); font-family: &amp;quot;Courier New&amp;quot;; text-align: left;&quot;&gt;0&amp;lt;e&lt;/span&gt;&lt;sub style=&quot;color: light-dark(rgb(0, 0, 0), rgb(255, 255, 255)); font-family: &amp;quot;Courier New&amp;quot;; text-align: left; line-height: 13px;&quot;&gt;1&lt;/sub&gt;&lt;span style=&quot;color: light-dark(rgb(0, 0, 0), rgb(255, 255, 255)); font-family: &amp;quot;Courier New&amp;quot;; text-align: left;&quot;&gt;-e&lt;/span&gt;&lt;sub style=&quot;color: light-dark(rgb(0, 0, 0), rgb(255, 255, 255)); font-family: &amp;quot;Courier New&amp;quot;; text-align: left; line-height: 13px;&quot;&gt;0&lt;/sub&gt;&lt;span style=&quot;color: light-dark(rgb(0, 0, 0), rgb(255, 255, 255)); font-family: &amp;quot;Courier New&amp;quot;; text-align: left;&quot;&gt;&amp;lt;2&lt;/span&gt;&lt;/b&gt;&lt;/font&gt;" style="text;html=1;align=center;verticalAlign=middle;resizable=0;points=[];autosize=1;strokeColor=none;fillColor=none;" vertex="1" parent="2mVbCAliY_CCTs2_K3Rx-171">
          <mxGeometry x="16.264705882352942" y="58.90410958904109" width="80" height="30" as="geometry" />
        </mxCell>
        <mxCell id="2mVbCAliY_CCTs2_K3Rx-180" value="" style="group" vertex="1" connectable="0" parent="1">
          <mxGeometry x="-18662" y="-10873" width="111" height="120" as="geometry" />
        </mxCell>
        <mxCell id="2mVbCAliY_CCTs2_K3Rx-181" value="" style="rounded=1;whiteSpace=wrap;html=1;strokeWidth=2;fillColor=#F7FFFE;strokeColor=#0e8088;" vertex="1" parent="2mVbCAliY_CCTs2_K3Rx-180">
          <mxGeometry x="4" y="5" width="107" height="81" as="geometry" />
        </mxCell>
        <mxCell id="2mVbCAliY_CCTs2_K3Rx-182" style="rounded=0;orthogonalLoop=1;jettySize=auto;html=1;endArrow=openThin;endFill=0;strokeColor=#82b366;strokeWidth=2;fillColor=#d5e8d4;endSize=3;entryX=0;entryY=0.5;entryDx=0;entryDy=0;exitX=1;exitY=0.5;exitDx=0;exitDy=0;" edge="1" parent="2mVbCAliY_CCTs2_K3Rx-180" source="2mVbCAliY_CCTs2_K3Rx-183" target="2mVbCAliY_CCTs2_K3Rx-184">
          <mxGeometry relative="1" as="geometry">
            <mxPoint x="50.41764705882353" y="47.60273972602732" as="sourcePoint" />
            <mxPoint x="66.08823529411765" y="52.134246575342374" as="targetPoint" />
          </mxGeometry>
        </mxCell>
        <mxCell id="2mVbCAliY_CCTs2_K3Rx-183" value="" style="ellipse;whiteSpace=wrap;html=1;aspect=fixed;strokeWidth=2;fillColor=#b1ddf0;strokeColor=#10739e;" vertex="1" parent="2mVbCAliY_CCTs2_K3Rx-180">
          <mxGeometry x="33.44117647058824" y="38.698630136986225" width="13.058823529411764" height="13.058823529411764" as="geometry" />
        </mxCell>
        <mxCell id="2mVbCAliY_CCTs2_K3Rx-184" value="" style="ellipse;whiteSpace=wrap;html=1;aspect=fixed;strokeWidth=2;fillColor=#b1ddf0;strokeColor=#10739e;" vertex="1" parent="2mVbCAliY_CCTs2_K3Rx-180">
          <mxGeometry x="70.00411764705882" y="32.002054794520475" width="13.058823529411764" height="13.058823529411764" as="geometry" />
        </mxCell>
        <mxCell id="2mVbCAliY_CCTs2_K3Rx-185" value="&lt;font&gt;&lt;b&gt;&lt;span style=&quot;color: light-dark(rgb(0, 0, 0), rgb(255, 255, 255)); font-family: &amp;quot;Courier New&amp;quot;; text-align: left;&quot;&gt;2&amp;lt;e&lt;/span&gt;&lt;sub style=&quot;color: light-dark(rgb(0, 0, 0), rgb(255, 255, 255)); font-family: &amp;quot;Courier New&amp;quot;; text-align: left; line-height: 13px;&quot;&gt;5&lt;/sub&gt;&lt;span style=&quot;color: light-dark(rgb(0, 0, 0), rgb(255, 255, 255)); font-family: &amp;quot;Courier New&amp;quot;; text-align: left;&quot;&gt;-e&lt;/span&gt;&lt;sub style=&quot;color: light-dark(rgb(0, 0, 0), rgb(255, 255, 255)); font-family: &amp;quot;Courier New&amp;quot;; text-align: left; line-height: 13px;&quot;&gt;4&lt;/sub&gt;&lt;span style=&quot;color: light-dark(rgb(0, 0, 0), rgb(255, 255, 255)); font-family: &amp;quot;Courier New&amp;quot;; text-align: left;&quot;&gt;&amp;lt;6&lt;/span&gt;&lt;/b&gt;&lt;/font&gt;" style="text;html=1;align=center;verticalAlign=middle;resizable=0;points=[];autosize=1;strokeColor=none;fillColor=none;" vertex="1" parent="2mVbCAliY_CCTs2_K3Rx-180">
          <mxGeometry x="16.264705882352942" y="58.90410958904109" width="80" height="30" as="geometry" />
        </mxCell>
        <mxCell id="2mVbCAliY_CCTs2_K3Rx-186" value="" style="group" vertex="1" connectable="0" parent="1">
          <mxGeometry x="-18534" y="-10872" width="111.26470588235294" height="100" as="geometry" />
        </mxCell>
        <mxCell id="2mVbCAliY_CCTs2_K3Rx-187" value="" style="rounded=1;whiteSpace=wrap;html=1;strokeWidth=2;fillColor=#F7FFFE;strokeColor=#0e8088;" vertex="1" parent="2mVbCAliY_CCTs2_K3Rx-186">
          <mxGeometry x="4" y="5" width="107" height="81" as="geometry" />
        </mxCell>
        <mxCell id="2mVbCAliY_CCTs2_K3Rx-188" style="rounded=0;orthogonalLoop=1;jettySize=auto;html=1;endArrow=openThin;endFill=0;strokeColor=#82b366;strokeWidth=2;fillColor=#d5e8d4;endSize=3;entryX=-0.25;entryY=0.336;entryDx=0;entryDy=0;entryPerimeter=0;exitX=1;exitY=0.5;exitDx=0;exitDy=0;" edge="1" parent="2mVbCAliY_CCTs2_K3Rx-186" source="2mVbCAliY_CCTs2_K3Rx-189">
          <mxGeometry relative="1" as="geometry">
            <mxPoint x="59.41764705882353" y="22.60273972602732" as="sourcePoint" />
            <mxPoint x="75.08823529411765" y="27.134246575342377" as="targetPoint" />
          </mxGeometry>
        </mxCell>
        <mxCell id="2mVbCAliY_CCTs2_K3Rx-189" value="" style="ellipse;whiteSpace=wrap;html=1;aspect=fixed;strokeWidth=2;fillColor=#b1ddf0;strokeColor=#10739e;" vertex="1" parent="2mVbCAliY_CCTs2_K3Rx-186">
          <mxGeometry x="42.44117647058824" y="13.698630136986223" width="13.058823529411764" height="13.058823529411764" as="geometry" />
        </mxCell>
        <mxCell id="2mVbCAliY_CCTs2_K3Rx-190" style="rounded=0;orthogonalLoop=1;jettySize=auto;html=1;endArrow=openThin;endFill=0;strokeColor=#82b366;strokeWidth=2;fillColor=#d5e8d4;endSize=3;entryX=0.691;entryY=-0.106;entryDx=0;entryDy=0;entryPerimeter=0;exitX=0.5;exitY=1;exitDx=0;exitDy=0;" edge="1" parent="2mVbCAliY_CCTs2_K3Rx-186" source="2mVbCAliY_CCTs2_K3Rx-192" target="2mVbCAliY_CCTs2_K3Rx-193">
          <mxGeometry relative="1" as="geometry">
            <mxPoint x="75.74117647058824" y="32.87671232876712" as="sourcePoint" />
            <mxPoint x="79.00588235294117" y="43.99999999999993" as="targetPoint" />
          </mxGeometry>
        </mxCell>
        <mxCell id="2mVbCAliY_CCTs2_K3Rx-191" style="rounded=0;orthogonalLoop=1;jettySize=auto;html=1;endArrow=openThin;endFill=0;strokeColor=#82b366;strokeWidth=2;fillColor=#d5e8d4;endSize=3;entryX=1;entryY=0.5;entryDx=0;entryDy=0;exitX=0;exitY=0.5;exitDx=0;exitDy=0;" edge="1" parent="2mVbCAliY_CCTs2_K3Rx-186" source="2mVbCAliY_CCTs2_K3Rx-193" target="2mVbCAliY_CCTs2_K3Rx-194">
          <mxGeometry relative="1" as="geometry">
            <mxPoint x="82.27058823529411" y="45.369863013698556" as="sourcePoint" />
            <mxPoint x="75.74117647058824" y="56.16438356164383" as="targetPoint" />
          </mxGeometry>
        </mxCell>
        <mxCell id="2mVbCAliY_CCTs2_K3Rx-192" value="" style="ellipse;whiteSpace=wrap;html=1;aspect=fixed;strokeWidth=2;fillColor=#b1ddf0;strokeColor=#10739e;" vertex="1" parent="2mVbCAliY_CCTs2_K3Rx-186">
          <mxGeometry x="76.39411764705882" y="23.452054794520475" width="13.058823529411764" height="13.058823529411764" as="geometry" />
        </mxCell>
        <mxCell id="2mVbCAliY_CCTs2_K3Rx-193" value="" style="ellipse;whiteSpace=wrap;html=1;aspect=fixed;strokeWidth=2;fillColor=#b1ddf0;strokeColor=#10739e;" vertex="1" parent="2mVbCAliY_CCTs2_K3Rx-186">
          <mxGeometry x="65.29411764705883" y="50.84931506849308" width="13.058823529411764" height="13.058823529411764" as="geometry" />
        </mxCell>
        <mxCell id="2mVbCAliY_CCTs2_K3Rx-194" value="" style="ellipse;whiteSpace=wrap;html=1;aspect=fixed;strokeWidth=2;fillColor=#b1ddf0;strokeColor=#10739e;" vertex="1" parent="2mVbCAliY_CCTs2_K3Rx-186">
          <mxGeometry x="28.076470588235296" y="40.83561643835609" width="13.058823529411764" height="13.058823529411764" as="geometry" />
        </mxCell>
        <mxCell id="2mVbCAliY_CCTs2_K3Rx-195" value="&lt;font&gt;&lt;b&gt;&lt;span style=&quot;color: light-dark(rgb(0, 0, 0), rgb(255, 255, 255)); font-family: &amp;quot;Courier New&amp;quot;; text-align: left;&quot;&gt;0&amp;lt;(e&lt;/span&gt;&lt;sub style=&quot;color: light-dark(rgb(0, 0, 0), rgb(255, 255, 255)); font-family: &amp;quot;Courier New&amp;quot;; text-align: left; line-height: 13px;&quot;&gt;9&lt;/sub&gt;&lt;span style=&quot;color: light-dark(rgb(0, 0, 0), rgb(255, 255, 255)); font-family: &amp;quot;Courier New&amp;quot;; text-align: left;&quot;&gt;-e&lt;/span&gt;&lt;sub style=&quot;color: light-dark(rgb(0, 0, 0), rgb(255, 255, 255)); font-family: &amp;quot;Courier New&amp;quot;; text-align: left; line-height: 13px;&quot;&gt;6&lt;/sub&gt;&lt;span style=&quot;color: light-dark(rgb(0, 0, 0), rgb(255, 255, 255)); font-family: &amp;quot;Courier New&amp;quot;; text-align: left;&quot;&gt;)&lt;/span&gt;&lt;/b&gt;&lt;span style=&quot;color: rgb(51, 51, 51); text-align: start; text-wrap-mode: wrap;&quot;&gt;&lt;font face=&quot;Courier New&quot; style=&quot;font-size: 15px;&quot;&gt;&lt;b style=&quot;&quot;&gt;↑&lt;/b&gt;&lt;/font&gt;&lt;/span&gt;&lt;b&gt;&lt;span style=&quot;color: light-dark(rgb(0, 0, 0), rgb(255, 255, 255)); font-family: &amp;quot;Courier New&amp;quot;; text-align: left;&quot;&gt;&amp;lt;8&lt;/span&gt;&lt;/b&gt;&lt;/font&gt;" style="text;html=1;align=center;verticalAlign=middle;resizable=0;points=[];autosize=1;strokeColor=none;fillColor=none;" vertex="1" parent="2mVbCAliY_CCTs2_K3Rx-186">
          <mxGeometry x="5.264705882352942" y="57.90410958904109" width="104" height="32" as="geometry" />
        </mxCell>
        <mxCell id="2mVbCAliY_CCTs2_K3Rx-196" style="rounded=0;orthogonalLoop=1;jettySize=auto;html=1;strokeColor=#3A5431;endArrow=blockThin;endFill=1;endSize=4;strokeWidth=2;exitX=0.5;exitY=1;exitDx=0;exitDy=0;fillColor=#6d8764;entryX=0.5;entryY=0;entryDx=0;entryDy=0;" edge="1" parent="2mVbCAliY_CCTs2_K3Rx-186" target="2mVbCAliY_CCTs2_K3Rx-219">
          <mxGeometry relative="1" as="geometry">
            <mxPoint x="55.5" y="86" as="sourcePoint" />
            <mxPoint x="55.5" y="115" as="targetPoint" />
          </mxGeometry>
        </mxCell>
        <mxCell id="2mVbCAliY_CCTs2_K3Rx-197" value="" style="group" vertex="1" connectable="0" parent="1">
          <mxGeometry x="-18408" y="-10921" width="111.26470588235294" height="100" as="geometry" />
        </mxCell>
        <mxCell id="2mVbCAliY_CCTs2_K3Rx-198" value="" style="rounded=1;whiteSpace=wrap;html=1;strokeWidth=2;fillColor=#F7FFFE;strokeColor=#0e8088;" vertex="1" parent="2mVbCAliY_CCTs2_K3Rx-197">
          <mxGeometry x="4" y="5" width="107" height="81" as="geometry" />
        </mxCell>
        <mxCell id="2mVbCAliY_CCTs2_K3Rx-199" style="rounded=0;orthogonalLoop=1;jettySize=auto;html=1;endArrow=openThin;endFill=0;strokeColor=#82b366;strokeWidth=2;fillColor=#d5e8d4;endSize=3;entryX=-0.25;entryY=0.336;entryDx=0;entryDy=0;entryPerimeter=0;exitX=1;exitY=0.5;exitDx=0;exitDy=0;" edge="1" parent="2mVbCAliY_CCTs2_K3Rx-197" source="2mVbCAliY_CCTs2_K3Rx-200">
          <mxGeometry relative="1" as="geometry">
            <mxPoint x="59.41764705882353" y="22.60273972602732" as="sourcePoint" />
            <mxPoint x="75.08823529411765" y="27.134246575342377" as="targetPoint" />
          </mxGeometry>
        </mxCell>
        <mxCell id="2mVbCAliY_CCTs2_K3Rx-200" value="" style="ellipse;whiteSpace=wrap;html=1;aspect=fixed;strokeWidth=2;fillColor=#b1ddf0;strokeColor=#10739e;" vertex="1" parent="2mVbCAliY_CCTs2_K3Rx-197">
          <mxGeometry x="42.44117647058824" y="13.698630136986223" width="13.058823529411764" height="13.058823529411764" as="geometry" />
        </mxCell>
        <mxCell id="2mVbCAliY_CCTs2_K3Rx-201" style="rounded=0;orthogonalLoop=1;jettySize=auto;html=1;endArrow=openThin;endFill=0;strokeColor=#82b366;strokeWidth=2;fillColor=#d5e8d4;endSize=3;entryX=0.691;entryY=-0.106;entryDx=0;entryDy=0;entryPerimeter=0;exitX=0.5;exitY=1;exitDx=0;exitDy=0;" edge="1" parent="2mVbCAliY_CCTs2_K3Rx-197" source="2mVbCAliY_CCTs2_K3Rx-203" target="2mVbCAliY_CCTs2_K3Rx-204">
          <mxGeometry relative="1" as="geometry">
            <mxPoint x="75.74117647058824" y="32.87671232876712" as="sourcePoint" />
            <mxPoint x="79.00588235294117" y="43.99999999999993" as="targetPoint" />
          </mxGeometry>
        </mxCell>
        <mxCell id="2mVbCAliY_CCTs2_K3Rx-202" style="rounded=0;orthogonalLoop=1;jettySize=auto;html=1;endArrow=openThin;endFill=0;strokeColor=#82b366;strokeWidth=2;fillColor=#d5e8d4;endSize=3;entryX=1;entryY=0.5;entryDx=0;entryDy=0;exitX=0;exitY=0.5;exitDx=0;exitDy=0;" edge="1" parent="2mVbCAliY_CCTs2_K3Rx-197" source="2mVbCAliY_CCTs2_K3Rx-204" target="2mVbCAliY_CCTs2_K3Rx-205">
          <mxGeometry relative="1" as="geometry">
            <mxPoint x="82.27058823529411" y="45.369863013698556" as="sourcePoint" />
            <mxPoint x="75.74117647058824" y="56.16438356164383" as="targetPoint" />
          </mxGeometry>
        </mxCell>
        <mxCell id="2mVbCAliY_CCTs2_K3Rx-203" value="" style="ellipse;whiteSpace=wrap;html=1;aspect=fixed;strokeWidth=2;fillColor=#b1ddf0;strokeColor=#10739e;" vertex="1" parent="2mVbCAliY_CCTs2_K3Rx-197">
          <mxGeometry x="76.39411764705882" y="23.452054794520475" width="13.058823529411764" height="13.058823529411764" as="geometry" />
        </mxCell>
        <mxCell id="2mVbCAliY_CCTs2_K3Rx-204" value="" style="ellipse;whiteSpace=wrap;html=1;aspect=fixed;strokeWidth=2;fillColor=#b1ddf0;strokeColor=#10739e;" vertex="1" parent="2mVbCAliY_CCTs2_K3Rx-197">
          <mxGeometry x="65.29411764705883" y="50.84931506849308" width="13.058823529411764" height="13.058823529411764" as="geometry" />
        </mxCell>
        <mxCell id="2mVbCAliY_CCTs2_K3Rx-205" value="" style="ellipse;whiteSpace=wrap;html=1;aspect=fixed;strokeWidth=2;fillColor=#b1ddf0;strokeColor=#10739e;" vertex="1" parent="2mVbCAliY_CCTs2_K3Rx-197">
          <mxGeometry x="28.076470588235296" y="40.83561643835609" width="13.058823529411764" height="13.058823529411764" as="geometry" />
        </mxCell>
        <mxCell id="2mVbCAliY_CCTs2_K3Rx-206" value="&lt;font&gt;&lt;b&gt;&lt;span style=&quot;color: light-dark(rgb(0, 0, 0), rgb(255, 255, 255)); font-family: &amp;quot;Courier New&amp;quot;; text-align: left;&quot;&gt;0&amp;lt;(e&lt;/span&gt;&lt;sub style=&quot;color: light-dark(rgb(0, 0, 0), rgb(255, 255, 255)); font-family: &amp;quot;Courier New&amp;quot;; text-align: left; line-height: 13px;&quot;&gt;9&lt;/sub&gt;&lt;span style=&quot;color: light-dark(rgb(0, 0, 0), rgb(255, 255, 255)); font-family: &amp;quot;Courier New&amp;quot;; text-align: left;&quot;&gt;-e&lt;/span&gt;&lt;sub style=&quot;color: light-dark(rgb(0, 0, 0), rgb(255, 255, 255)); font-family: &amp;quot;Courier New&amp;quot;; text-align: left; line-height: 13px;&quot;&gt;6&lt;/sub&gt;&lt;span style=&quot;color: light-dark(rgb(0, 0, 0), rgb(255, 255, 255)); font-family: &amp;quot;Courier New&amp;quot;; text-align: left;&quot;&gt;)&lt;/span&gt;&lt;/b&gt;&lt;span style=&quot;color: rgb(51, 51, 51); text-align: start; text-wrap-mode: wrap;&quot;&gt;&lt;font face=&quot;Courier New&quot; style=&quot;font-size: 15px;&quot;&gt;&lt;b style=&quot;&quot;&gt;↑&lt;/b&gt;&lt;/font&gt;&lt;/span&gt;&lt;b&gt;&lt;span style=&quot;color: light-dark(rgb(0, 0, 0), rgb(255, 255, 255)); font-family: &amp;quot;Courier New&amp;quot;; text-align: left;&quot;&gt;&amp;lt;8&lt;/span&gt;&lt;/b&gt;&lt;/font&gt;" style="text;html=1;align=center;verticalAlign=middle;resizable=0;points=[];autosize=1;strokeColor=none;fillColor=none;" vertex="1" parent="2mVbCAliY_CCTs2_K3Rx-197">
          <mxGeometry x="5.264705882352942" y="57.90410958904109" width="104" height="32" as="geometry" />
        </mxCell>
        <mxCell id="2mVbCAliY_CCTs2_K3Rx-207" style="rounded=0;orthogonalLoop=1;jettySize=auto;html=1;strokeColor=#3A5431;endArrow=blockThin;endFill=1;endSize=4;strokeWidth=2;exitX=0.5;exitY=1;exitDx=0;exitDy=0;fillColor=#6d8764;entryX=0.5;entryY=0;entryDx=0;entryDy=0;" edge="1" parent="2mVbCAliY_CCTs2_K3Rx-197" target="2mVbCAliY_CCTs2_K3Rx-209">
          <mxGeometry relative="1" as="geometry">
            <mxPoint x="57.25999999999999" y="86" as="sourcePoint" />
            <mxPoint x="57.25999999999999" y="115" as="targetPoint" />
          </mxGeometry>
        </mxCell>
        <mxCell id="2mVbCAliY_CCTs2_K3Rx-208" value="" style="group" vertex="1" connectable="0" parent="1">
          <mxGeometry x="-18408" y="-10814" width="111.26470588235294" height="100" as="geometry" />
        </mxCell>
        <mxCell id="2mVbCAliY_CCTs2_K3Rx-209" value="" style="rounded=1;whiteSpace=wrap;html=1;strokeWidth=2;fillColor=#F7FFFE;strokeColor=#0e8088;" vertex="1" parent="2mVbCAliY_CCTs2_K3Rx-208">
          <mxGeometry x="4" y="5" width="107" height="81" as="geometry" />
        </mxCell>
        <mxCell id="2mVbCAliY_CCTs2_K3Rx-210" style="rounded=0;orthogonalLoop=1;jettySize=auto;html=1;endArrow=openThin;endFill=0;strokeColor=#82b366;strokeWidth=2;fillColor=#d5e8d4;endSize=3;entryX=-0.25;entryY=0.336;entryDx=0;entryDy=0;entryPerimeter=0;exitX=1;exitY=0.5;exitDx=0;exitDy=0;" edge="1" parent="2mVbCAliY_CCTs2_K3Rx-208" source="2mVbCAliY_CCTs2_K3Rx-211">
          <mxGeometry relative="1" as="geometry">
            <mxPoint x="59.41764705882353" y="22.60273972602732" as="sourcePoint" />
            <mxPoint x="75.08823529411765" y="27.134246575342377" as="targetPoint" />
          </mxGeometry>
        </mxCell>
        <mxCell id="2mVbCAliY_CCTs2_K3Rx-211" value="" style="ellipse;whiteSpace=wrap;html=1;aspect=fixed;strokeWidth=2;fillColor=#b1ddf0;strokeColor=#10739e;" vertex="1" parent="2mVbCAliY_CCTs2_K3Rx-208">
          <mxGeometry x="42.44117647058824" y="13.698630136986223" width="13.058823529411764" height="13.058823529411764" as="geometry" />
        </mxCell>
        <mxCell id="2mVbCAliY_CCTs2_K3Rx-212" style="rounded=0;orthogonalLoop=1;jettySize=auto;html=1;endArrow=openThin;endFill=0;strokeColor=#82b366;strokeWidth=2;fillColor=#d5e8d4;endSize=3;entryX=0.691;entryY=-0.106;entryDx=0;entryDy=0;entryPerimeter=0;exitX=0.5;exitY=1;exitDx=0;exitDy=0;" edge="1" parent="2mVbCAliY_CCTs2_K3Rx-208" source="2mVbCAliY_CCTs2_K3Rx-214" target="2mVbCAliY_CCTs2_K3Rx-215">
          <mxGeometry relative="1" as="geometry">
            <mxPoint x="75.74117647058824" y="32.87671232876712" as="sourcePoint" />
            <mxPoint x="79.00588235294117" y="43.99999999999993" as="targetPoint" />
          </mxGeometry>
        </mxCell>
        <mxCell id="2mVbCAliY_CCTs2_K3Rx-213" style="rounded=0;orthogonalLoop=1;jettySize=auto;html=1;endArrow=openThin;endFill=0;strokeColor=#82b366;strokeWidth=2;fillColor=#d5e8d4;endSize=3;entryX=1;entryY=0.5;entryDx=0;entryDy=0;exitX=0;exitY=0.5;exitDx=0;exitDy=0;" edge="1" parent="2mVbCAliY_CCTs2_K3Rx-208" source="2mVbCAliY_CCTs2_K3Rx-215" target="2mVbCAliY_CCTs2_K3Rx-216">
          <mxGeometry relative="1" as="geometry">
            <mxPoint x="82.27058823529411" y="45.369863013698556" as="sourcePoint" />
            <mxPoint x="75.74117647058824" y="56.16438356164383" as="targetPoint" />
          </mxGeometry>
        </mxCell>
        <mxCell id="2mVbCAliY_CCTs2_K3Rx-214" value="" style="ellipse;whiteSpace=wrap;html=1;aspect=fixed;strokeWidth=2;fillColor=#b1ddf0;strokeColor=#10739e;" vertex="1" parent="2mVbCAliY_CCTs2_K3Rx-208">
          <mxGeometry x="76.39411764705882" y="23.452054794520475" width="13.058823529411764" height="13.058823529411764" as="geometry" />
        </mxCell>
        <mxCell id="2mVbCAliY_CCTs2_K3Rx-215" value="" style="ellipse;whiteSpace=wrap;html=1;aspect=fixed;strokeWidth=2;fillColor=#b1ddf0;strokeColor=#10739e;" vertex="1" parent="2mVbCAliY_CCTs2_K3Rx-208">
          <mxGeometry x="65.29411764705883" y="50.84931506849308" width="13.058823529411764" height="13.058823529411764" as="geometry" />
        </mxCell>
        <mxCell id="2mVbCAliY_CCTs2_K3Rx-216" value="" style="ellipse;whiteSpace=wrap;html=1;aspect=fixed;strokeWidth=2;fillColor=#b1ddf0;strokeColor=#10739e;" vertex="1" parent="2mVbCAliY_CCTs2_K3Rx-208">
          <mxGeometry x="28.076470588235296" y="40.83561643835609" width="13.058823529411764" height="13.058823529411764" as="geometry" />
        </mxCell>
        <mxCell id="2mVbCAliY_CCTs2_K3Rx-217" value="&lt;font&gt;&lt;b&gt;&lt;span style=&quot;color: light-dark(rgb(0, 0, 0), rgb(255, 255, 255)); font-family: &amp;quot;Courier New&amp;quot;; text-align: left;&quot;&gt;0&amp;lt;(e&lt;/span&gt;&lt;sub style=&quot;color: light-dark(rgb(0, 0, 0), rgb(255, 255, 255)); font-family: &amp;quot;Courier New&amp;quot;; text-align: left; line-height: 13px;&quot;&gt;9&lt;/sub&gt;&lt;span style=&quot;color: light-dark(rgb(0, 0, 0), rgb(255, 255, 255)); font-family: &amp;quot;Courier New&amp;quot;; text-align: left;&quot;&gt;-e&lt;/span&gt;&lt;sub style=&quot;color: light-dark(rgb(0, 0, 0), rgb(255, 255, 255)); font-family: &amp;quot;Courier New&amp;quot;; text-align: left; line-height: 13px;&quot;&gt;6&lt;/sub&gt;&lt;span style=&quot;color: light-dark(rgb(0, 0, 0), rgb(255, 255, 255)); font-family: &amp;quot;Courier New&amp;quot;; text-align: left;&quot;&gt;)&lt;/span&gt;&lt;/b&gt;&lt;span style=&quot;color: rgb(51, 51, 51); text-align: start; text-wrap-mode: wrap;&quot;&gt;&lt;font face=&quot;Courier New&quot; style=&quot;font-size: 15px;&quot;&gt;&lt;b style=&quot;&quot;&gt;↑&lt;/b&gt;&lt;/font&gt;&lt;/span&gt;&lt;b&gt;&lt;span style=&quot;color: light-dark(rgb(0, 0, 0), rgb(255, 255, 255)); font-family: &amp;quot;Courier New&amp;quot;; text-align: left;&quot;&gt;&amp;lt;8&lt;/span&gt;&lt;/b&gt;&lt;/font&gt;" style="text;html=1;align=center;verticalAlign=middle;resizable=0;points=[];autosize=1;strokeColor=none;fillColor=none;" vertex="1" parent="2mVbCAliY_CCTs2_K3Rx-208">
          <mxGeometry x="5.264705882352942" y="57.90410958904109" width="104" height="32" as="geometry" />
        </mxCell>
        <mxCell id="2mVbCAliY_CCTs2_K3Rx-218" value="" style="group" vertex="1" connectable="0" parent="1">
          <mxGeometry x="-18533" y="-10755" width="116" height="95" as="geometry" />
        </mxCell>
        <mxCell id="2mVbCAliY_CCTs2_K3Rx-219" value="" style="rounded=1;whiteSpace=wrap;html=1;strokeWidth=2;fillColor=#F7FFFE;strokeColor=#0e8088;" vertex="1" parent="2mVbCAliY_CCTs2_K3Rx-218">
          <mxGeometry x="2.09009009009009" y="4.75" width="111.81981981981981" height="76.95" as="geometry" />
        </mxCell>
        <mxCell id="2mVbCAliY_CCTs2_K3Rx-220" style="rounded=0;orthogonalLoop=1;jettySize=auto;html=1;endArrow=none;endFill=0;strokeColor=#82b366;strokeWidth=2;fillColor=#d5e8d4;endSize=3;entryX=0;entryY=0.5;entryDx=0;entryDy=0;exitX=1;exitY=0.5;exitDx=0;exitDy=0;startSize=3;startArrow=openThin;startFill=0;" edge="1" parent="2mVbCAliY_CCTs2_K3Rx-218" source="2mVbCAliY_CCTs2_K3Rx-221" target="2mVbCAliY_CCTs2_K3Rx-222">
          <mxGeometry relative="1" as="geometry">
            <mxPoint x="52.68871224165342" y="49.97260273972596" as="sourcePoint" />
            <mxPoint x="69.06518282988871" y="54.27753424657525" as="targetPoint" />
          </mxGeometry>
        </mxCell>
        <mxCell id="2mVbCAliY_CCTs2_K3Rx-221" value="" style="ellipse;whiteSpace=wrap;html=1;aspect=fixed;strokeWidth=2;fillColor=#b1ddf0;strokeColor=#10739e;" vertex="1" parent="2mVbCAliY_CCTs2_K3Rx-218">
          <mxGeometry x="34.94753577106518" y="32.96369863013691" width="12.405882352941175" height="12.405882352941175" as="geometry" />
        </mxCell>
        <mxCell id="2mVbCAliY_CCTs2_K3Rx-222" value="" style="ellipse;whiteSpace=wrap;html=1;aspect=fixed;strokeWidth=2;fillColor=#b1ddf0;strokeColor=#10739e;" vertex="1" parent="2mVbCAliY_CCTs2_K3Rx-218">
          <mxGeometry x="72.11241123476417" y="40.85195205479445" width="12.405882352941175" height="12.405882352941175" as="geometry" />
        </mxCell>
        <mxCell id="2mVbCAliY_CCTs2_K3Rx-224" style="rounded=0;orthogonalLoop=1;jettySize=auto;html=1;strokeColor=#3A5431;endArrow=blockThin;endFill=1;endSize=4;strokeWidth=2;exitX=0.25;exitY=1;exitDx=0;exitDy=0;fillColor=#6d8764;" edge="1" parent="1" source="2mVbCAliY_CCTs2_K3Rx-172">
          <mxGeometry relative="1" as="geometry">
            <mxPoint x="-18646" y="-11008" as="sourcePoint" />
            <mxPoint x="-18557" y="-10869" as="targetPoint" />
          </mxGeometry>
        </mxCell>
        <mxCell id="2mVbCAliY_CCTs2_K3Rx-225" style="rounded=0;orthogonalLoop=1;jettySize=auto;html=1;strokeColor=#3A5431;endArrow=blockThin;endFill=1;endSize=4;strokeWidth=2;exitX=0.5;exitY=1;exitDx=0;exitDy=0;fillColor=#6d8764;entryX=0.5;entryY=0;entryDx=0;entryDy=0;" edge="1" parent="1" source="2mVbCAliY_CCTs2_K3Rx-172" target="2mVbCAliY_CCTs2_K3Rx-187">
          <mxGeometry relative="1" as="geometry">
            <mxPoint x="-18493" y="-10886" as="sourcePoint" />
            <mxPoint x="-18547" y="-10859" as="targetPoint" />
          </mxGeometry>
        </mxCell>
        <mxCell id="2mVbCAliY_CCTs2_K3Rx-226" style="rounded=0;orthogonalLoop=1;jettySize=auto;html=1;strokeColor=#3A5431;endArrow=blockThin;endFill=1;endSize=4;strokeWidth=2;exitX=0.98;exitY=0.946;exitDx=0;exitDy=0;fillColor=#6d8764;entryX=-0.019;entryY=0.31;entryDx=0;entryDy=0;exitPerimeter=0;entryPerimeter=0;" edge="1" parent="1" source="2mVbCAliY_CCTs2_K3Rx-172" target="2mVbCAliY_CCTs2_K3Rx-198">
          <mxGeometry relative="1" as="geometry">
            <mxPoint x="-18466" y="-10886" as="sourcePoint" />
            <mxPoint x="-18466" y="-10857" as="targetPoint" />
          </mxGeometry>
        </mxCell>
        <mxCell id="2mVbCAliY_CCTs2_K3Rx-227" style="rounded=0;orthogonalLoop=1;jettySize=auto;html=1;strokeColor=#3A5431;endArrow=blockThin;endFill=1;endSize=4;strokeWidth=2;fillColor=#6d8764;entryX=1;entryY=0.5;entryDx=0;entryDy=0;exitX=0.008;exitY=0.882;exitDx=0;exitDy=0;exitPerimeter=0;" edge="1" parent="1" source="2mVbCAliY_CCTs2_K3Rx-209" target="2mVbCAliY_CCTs2_K3Rx-219">
          <mxGeometry relative="1" as="geometry">
            <mxPoint x="-18404" y="-10728" as="sourcePoint" />
            <mxPoint x="-18412" y="-10691.5" as="targetPoint" />
          </mxGeometry>
        </mxCell>
        <mxCell id="2mVbCAliY_CCTs2_K3Rx-228" style="rounded=0;orthogonalLoop=1;jettySize=auto;html=1;strokeColor=#3A5431;endArrow=blockThin;endFill=1;endSize=4;strokeWidth=2;exitX=0.789;exitY=1.009;exitDx=0;exitDy=0;fillColor=#6d8764;entryX=0.004;entryY=0.17;entryDx=0;entryDy=0;exitPerimeter=0;entryPerimeter=0;" edge="1" parent="1" source="2mVbCAliY_CCTs2_K3Rx-181" target="2mVbCAliY_CCTs2_K3Rx-219">
          <mxGeometry relative="1" as="geometry">
            <mxPoint x="-18415" y="-10890" as="sourcePoint" />
            <mxPoint x="-18396" y="-10881" as="targetPoint" />
          </mxGeometry>
        </mxCell>
        <mxCell id="2mVbCAliY_CCTs2_K3Rx-229" value="" style="rounded=1;whiteSpace=wrap;html=1;strokeWidth=2;fillColor=light-dark(#fdf3e7, #36210a);strokeColor=#d79b00;" vertex="1" parent="1">
          <mxGeometry x="-18206" y="-10934" width="110" height="110" as="geometry" />
        </mxCell>
        <mxCell id="2mVbCAliY_CCTs2_K3Rx-230" style="rounded=0;orthogonalLoop=1;jettySize=auto;html=1;endArrow=openThin;endFill=0;strokeColor=light-dark(#bf8e08, #446e2c);strokeWidth=2;fillColor=#d5e8d4;endSize=3;entryX=1.104;entryY=0.098;entryDx=0;entryDy=0;entryPerimeter=0;exitX=0.5;exitY=1;exitDx=0;exitDy=0;" edge="1" parent="1" source="2mVbCAliY_CCTs2_K3Rx-239" target="2mVbCAliY_CCTs2_K3Rx-232">
          <mxGeometry relative="1" as="geometry">
            <mxPoint x="-18111" y="-10890" as="sourcePoint" />
            <mxPoint x="-18117" y="-10911.39" as="targetPoint" />
          </mxGeometry>
        </mxCell>
        <mxCell id="2mVbCAliY_CCTs2_K3Rx-231" value="" style="ellipse;whiteSpace=wrap;html=1;aspect=fixed;strokeWidth=2;fillColor=#fad7ac;strokeColor=#b46504;" vertex="1" parent="1">
          <mxGeometry x="-18156" y="-10925" width="12" height="12" as="geometry" />
        </mxCell>
        <mxCell id="2mVbCAliY_CCTs2_K3Rx-232" value="" style="ellipse;whiteSpace=wrap;html=1;aspect=fixed;strokeWidth=2;fillColor=#fad7ac;strokeColor=#b46504;" vertex="1" parent="1">
          <mxGeometry x="-18156" y="-10880" width="12" height="12" as="geometry" />
        </mxCell>
        <mxCell id="2mVbCAliY_CCTs2_K3Rx-233" value="" style="ellipse;whiteSpace=wrap;html=1;aspect=fixed;strokeWidth=2;fillColor=#fad7ac;strokeColor=#b46504;rotation=-15;" vertex="1" parent="1">
          <mxGeometry x="-18179" y="-10871" width="12" height="12" as="geometry" />
        </mxCell>
        <mxCell id="2mVbCAliY_CCTs2_K3Rx-234" value="" style="ellipse;whiteSpace=wrap;html=1;aspect=fixed;strokeWidth=2;fillColor=#fad7ac;strokeColor=#b46504;" vertex="1" parent="1">
          <mxGeometry x="-18191" y="-10909" width="12" height="12" as="geometry" />
        </mxCell>
        <mxCell id="2mVbCAliY_CCTs2_K3Rx-235" style="rounded=0;orthogonalLoop=1;jettySize=auto;html=1;endArrow=openThin;endFill=0;strokeColor=light-dark(#bf8e08, #446e2c);strokeWidth=2;fillColor=#d5e8d4;endSize=3;exitX=0;exitY=1;exitDx=0;exitDy=0;entryX=1;entryY=0;entryDx=0;entryDy=0;" edge="1" parent="1" source="2mVbCAliY_CCTs2_K3Rx-231" target="2mVbCAliY_CCTs2_K3Rx-234">
          <mxGeometry relative="1" as="geometry">
            <mxPoint x="-18119" y="-10901.39" as="sourcePoint" />
            <mxPoint x="-18185" y="-10915" as="targetPoint" />
          </mxGeometry>
        </mxCell>
        <mxCell id="2mVbCAliY_CCTs2_K3Rx-236" style="rounded=0;orthogonalLoop=1;jettySize=auto;html=1;endArrow=openThin;endFill=0;strokeColor=light-dark(#bf8e08, #446e2c);strokeWidth=2;fillColor=#d5e8d4;endSize=3;exitX=1.065;exitY=0.7;exitDx=0;exitDy=0;exitPerimeter=0;entryX=0;entryY=0.5;entryDx=0;entryDy=0;" edge="1" parent="1" source="2mVbCAliY_CCTs2_K3Rx-234" target="2mVbCAliY_CCTs2_K3Rx-238">
          <mxGeometry relative="1" as="geometry">
            <mxPoint x="-18134" y="-10911.39" as="sourcePoint" />
            <mxPoint x="-18128" y="-10904.39" as="targetPoint" />
          </mxGeometry>
        </mxCell>
        <mxCell id="2mVbCAliY_CCTs2_K3Rx-237" style="rounded=0;orthogonalLoop=1;jettySize=auto;html=1;endArrow=openThin;endFill=0;strokeColor=light-dark(#bf8e08, #446e2c);strokeWidth=2;fillColor=#d5e8d4;endSize=3;exitX=0;exitY=1;exitDx=0;exitDy=0;entryX=1.089;entryY=0.718;entryDx=0;entryDy=0;entryPerimeter=0;" edge="1" parent="1" source="2mVbCAliY_CCTs2_K3Rx-232" target="2mVbCAliY_CCTs2_K3Rx-233">
          <mxGeometry relative="1" as="geometry">
            <mxPoint x="-18129" y="-10885.08" as="sourcePoint" />
            <mxPoint x="-18160" y="-10866" as="targetPoint" />
          </mxGeometry>
        </mxCell>
        <mxCell id="2mVbCAliY_CCTs2_K3Rx-238" value="" style="ellipse;whiteSpace=wrap;html=1;aspect=fixed;strokeWidth=2;fillColor=#fad7ac;strokeColor=#b46504;" vertex="1" parent="1">
          <mxGeometry x="-18162.5" y="-10903" width="12" height="12" as="geometry" />
        </mxCell>
        <mxCell id="2mVbCAliY_CCTs2_K3Rx-239" value="" style="ellipse;whiteSpace=wrap;html=1;aspect=fixed;strokeWidth=2;fillColor=#fad7ac;strokeColor=#b46504;" vertex="1" parent="1">
          <mxGeometry x="-18129" y="-10895" width="12" height="12" as="geometry" />
        </mxCell>
        <mxCell id="2mVbCAliY_CCTs2_K3Rx-240" style="rounded=0;orthogonalLoop=1;jettySize=auto;html=1;endArrow=openThin;endFill=0;strokeColor=light-dark(#bf8e08, #446e2c);strokeWidth=2;fillColor=#d5e8d4;endSize=3;exitX=1;exitY=0.5;exitDx=0;exitDy=0;" edge="1" parent="1" source="2mVbCAliY_CCTs2_K3Rx-238">
          <mxGeometry relative="1" as="geometry">
            <mxPoint x="-18168" y="-10891" as="sourcePoint" />
            <mxPoint x="-18130" y="-10890" as="targetPoint" />
          </mxGeometry>
        </mxCell>
        <mxCell id="2mVbCAliY_CCTs2_K3Rx-241" value="&lt;font&gt;&lt;b&gt;&lt;span style=&quot;color: light-dark(rgb(0, 0, 0), rgb(255, 255, 255)); font-family: &amp;quot;Courier New&amp;quot;; text-align: left;&quot;&gt;2&amp;lt;e&lt;/span&gt;&lt;sub style=&quot;color: light-dark(rgb(0, 0, 0), rgb(255, 255, 255)); font-family: &amp;quot;Courier New&amp;quot;; text-align: left; line-height: 13px;&quot;&gt;16&lt;/sub&gt;&lt;span style=&quot;color: light-dark(rgb(0, 0, 0), rgb(255, 255, 255)); font-family: &amp;quot;Courier New&amp;quot;; text-align: left;&quot;&gt;-e&lt;/span&gt;&lt;sub style=&quot;color: light-dark(rgb(0, 0, 0), rgb(255, 255, 255)); font-family: &amp;quot;Courier New&amp;quot;; text-align: left; line-height: 13px;&quot;&gt;14&lt;/sub&gt;&lt;span style=&quot;color: light-dark(rgb(0, 0, 0), rgb(255, 255, 255)); font-family: &amp;quot;Courier New&amp;quot;; text-align: left;&quot;&gt;&amp;lt;5&lt;/span&gt;&lt;/b&gt;&lt;/font&gt;&lt;div&gt;&lt;font&gt;&lt;b&gt;&lt;span style=&quot;color: light-dark(rgb(0, 0, 0), rgb(255, 255, 255)); font-family: &amp;quot;Courier New&amp;quot;; text-align: left;&quot;&gt;5&amp;lt;e&lt;/span&gt;&lt;sub style=&quot;color: light-dark(rgb(0, 0, 0), rgb(255, 255, 255)); font-family: &amp;quot;Courier New&amp;quot;; text-align: left; line-height: 13px;&quot;&gt;12&lt;/sub&gt;&lt;span style=&quot;color: light-dark(rgb(0, 0, 0), rgb(255, 255, 255)); font-family: &amp;quot;Courier New&amp;quot;; text-align: left;&quot;&gt;-e&lt;/span&gt;&lt;sub style=&quot;color: light-dark(rgb(0, 0, 0), rgb(255, 255, 255)); font-family: &amp;quot;Courier New&amp;quot;; text-align: left; line-height: 13px;&quot;&gt;17&lt;/sub&gt;&lt;span style=&quot;color: light-dark(rgb(0, 0, 0), rgb(255, 255, 255)); font-family: &amp;quot;Courier New&amp;quot;; text-align: left;&quot;&gt;&amp;lt;12&lt;/span&gt;&lt;/b&gt;&lt;b&gt;&lt;span style=&quot;color: light-dark(rgb(0, 0, 0), rgb(255, 255, 255)); font-family: &amp;quot;Courier New&amp;quot;; text-align: left;&quot;&gt;&lt;/span&gt;&lt;/b&gt;&lt;/font&gt;&lt;/div&gt;" style="text;html=1;align=center;verticalAlign=middle;resizable=0;points=[];autosize=1;strokeColor=none;fillColor=none;" vertex="1" parent="1">
          <mxGeometry x="-18201.995294117645" y="-10864.995890410959" width="100" height="48" as="geometry" />
        </mxCell>
        <mxCell id="2mVbCAliY_CCTs2_K3Rx-242" value="" style="group" vertex="1" connectable="0" parent="1">
          <mxGeometry x="-18206" y="-10802" width="111" height="83" as="geometry" />
        </mxCell>
        <mxCell id="2mVbCAliY_CCTs2_K3Rx-243" value="" style="rounded=1;whiteSpace=wrap;html=1;strokeWidth=2;fillColor=light-dark(#fdf3e7, #36210a);strokeColor=#d79b00;" vertex="1" parent="2mVbCAliY_CCTs2_K3Rx-242">
          <mxGeometry width="111" height="83" as="geometry" />
        </mxCell>
        <mxCell id="2mVbCAliY_CCTs2_K3Rx-244" style="rounded=0;orthogonalLoop=1;jettySize=auto;html=1;endArrow=openThin;endFill=0;strokeColor=light-dark(#bf8e08, #446e2c);strokeWidth=2;fillColor=#d5e8d4;endSize=3;entryX=1;entryY=0;entryDx=0;entryDy=0;exitX=0.5;exitY=1;exitDx=0;exitDy=0;" edge="1" parent="2mVbCAliY_CCTs2_K3Rx-242" source="2mVbCAliY_CCTs2_K3Rx-250" target="2mVbCAliY_CCTs2_K3Rx-248">
          <mxGeometry relative="1" as="geometry">
            <mxPoint x="61" y="45" as="sourcePoint" />
            <mxPoint x="66" y="32.610000000000014" as="targetPoint" />
          </mxGeometry>
        </mxCell>
        <mxCell id="2mVbCAliY_CCTs2_K3Rx-245" style="rounded=0;orthogonalLoop=1;jettySize=auto;html=1;endArrow=openThin;endFill=0;strokeColor=light-dark(#bf8e08, #446e2c);strokeWidth=2;fillColor=#d5e8d4;endSize=3;entryX=-0.154;entryY=0.41;entryDx=0;entryDy=0;exitX=1;exitY=0.5;exitDx=0;exitDy=0;entryPerimeter=0;" edge="1" parent="2mVbCAliY_CCTs2_K3Rx-242" source="2mVbCAliY_CCTs2_K3Rx-247" target="2mVbCAliY_CCTs2_K3Rx-250">
          <mxGeometry relative="1" as="geometry">
            <mxPoint x="29" y="29" as="sourcePoint" />
            <mxPoint x="-2" y="29" as="targetPoint" />
          </mxGeometry>
        </mxCell>
        <mxCell id="2mVbCAliY_CCTs2_K3Rx-246" style="rounded=0;orthogonalLoop=1;jettySize=auto;html=1;endArrow=openThin;endFill=0;strokeColor=light-dark(#bf8e08, #446e2c);strokeWidth=2;fillColor=#d5e8d4;endSize=3;entryX=1;entryY=1;entryDx=0;entryDy=0;" edge="1" parent="2mVbCAliY_CCTs2_K3Rx-242" target="2mVbCAliY_CCTs2_K3Rx-249">
          <mxGeometry relative="1" as="geometry">
            <mxPoint x="59" y="60" as="sourcePoint" />
            <mxPoint x="48" y="66.91999999999996" as="targetPoint" />
          </mxGeometry>
        </mxCell>
        <mxCell id="2mVbCAliY_CCTs2_K3Rx-247" value="" style="ellipse;whiteSpace=wrap;html=1;aspect=fixed;strokeWidth=2;fillColor=#fad7ac;strokeColor=#b46504;" vertex="1" parent="2mVbCAliY_CCTs2_K3Rx-242">
          <mxGeometry x="27" y="19" width="12" height="12" as="geometry" />
        </mxCell>
        <mxCell id="2mVbCAliY_CCTs2_K3Rx-248" value="" style="ellipse;whiteSpace=wrap;html=1;aspect=fixed;strokeWidth=2;fillColor=#fad7ac;strokeColor=#b46504;" vertex="1" parent="2mVbCAliY_CCTs2_K3Rx-242">
          <mxGeometry x="60" y="56" width="12" height="12" as="geometry" />
        </mxCell>
        <mxCell id="2mVbCAliY_CCTs2_K3Rx-249" value="" style="ellipse;whiteSpace=wrap;html=1;aspect=fixed;strokeWidth=2;fillColor=#fad7ac;strokeColor=#b46504;rotation=-15;" vertex="1" parent="2mVbCAliY_CCTs2_K3Rx-242">
          <mxGeometry x="25" y="44" width="12" height="12" as="geometry" />
        </mxCell>
        <mxCell id="2mVbCAliY_CCTs2_K3Rx-250" value="" style="ellipse;whiteSpace=wrap;html=1;aspect=fixed;strokeWidth=2;fillColor=#fad7ac;strokeColor=#b46504;" vertex="1" parent="2mVbCAliY_CCTs2_K3Rx-242">
          <mxGeometry x="77" y="25" width="12" height="12" as="geometry" />
        </mxCell>
        <mxCell id="2mVbCAliY_CCTs2_K3Rx-251" value="" style="group" vertex="1" connectable="0" parent="1">
          <mxGeometry x="-18043" y="-10891" width="155" height="143" as="geometry" />
        </mxCell>
        <mxCell id="2mVbCAliY_CCTs2_K3Rx-252" value="" style="shape=note;whiteSpace=wrap;html=1;backgroundOutline=1;darkOpacity=0.05;size=16;fillColor=light-dark(#FAF4FF,#392F3F);strokeColor=#9673a6;strokeWidth=2;shadow=1;" vertex="1" parent="2mVbCAliY_CCTs2_K3Rx-251">
          <mxGeometry width="155" height="119.46884225742039" as="geometry" />
        </mxCell>
        <mxCell id="2mVbCAliY_CCTs2_K3Rx-253" value="&lt;span style=&quot;font-style: normal; font-variant-ligatures: normal; font-variant-caps: normal; letter-spacing: normal; orphans: 2; text-align: left; text-indent: 0px; text-transform: none; widows: 2; word-spacing: 0px; -webkit-text-stroke-width: 0px; white-space: nowrap; text-decoration-thickness: initial; text-decoration-style: initial; text-decoration-color: initial; float: none; display: inline !important;&quot;&gt;&lt;font face=&quot;Courier New&quot; style=&quot;color: rgb(76, 0, 153);&quot;&gt;&lt;b style=&quot;&quot;&gt;Property&lt;/b&gt;&lt;/font&gt;&lt;/span&gt;" style="text;whiteSpace=wrap;html=1;shadow=1;" vertex="1" parent="2mVbCAliY_CCTs2_K3Rx-251">
          <mxGeometry x="34.98620309050772" y="70.26824334584938" width="68.2" height="41.63308139273741" as="geometry" />
        </mxCell>
        <mxCell id="2mVbCAliY_CCTs2_K3Rx-254" value="&lt;b style=&quot;forced-color-adjust: none; color: rgb(0, 0, 0); font-family: Helvetica; font-size: 12px; font-style: normal; font-variant-ligatures: normal; font-variant-caps: normal; letter-spacing: normal; orphans: 2; text-align: center; text-indent: 0px; text-transform: none; widows: 2; word-spacing: 0px; -webkit-text-stroke-width: 0px; white-space: nowrap; text-decoration-thickness: initial; text-decoration-style: initial; text-decoration-color: initial;&quot;&gt;&lt;span style=&quot;forced-color-adjust: none; color: light-dark(rgb(0, 0, 0), rgb(255, 255, 255)); font-family: &amp;quot;Courier New&amp;quot;; text-align: left;&quot;&gt;0&amp;lt;e&lt;/span&gt;&lt;sub style=&quot;forced-color-adjust: none; color: light-dark(rgb(0, 0, 0), rgb(255, 255, 255)); font-family: &amp;quot;Courier New&amp;quot;; text-align: left; line-height: 13px;&quot;&gt;10&lt;/sub&gt;&lt;span style=&quot;forced-color-adjust: none; color: light-dark(rgb(0, 0, 0), rgb(255, 255, 255)); font-family: &amp;quot;Courier New&amp;quot;; text-align: left;&quot;&gt;-e&lt;/span&gt;&lt;sub style=&quot;forced-color-adjust: none; color: light-dark(rgb(0, 0, 0), rgb(255, 255, 255)); font-family: &amp;quot;Courier New&amp;quot;; text-align: left; line-height: 13px;&quot;&gt;3&lt;/sub&gt;&lt;span style=&quot;forced-color-adjust: none; color: light-dark(rgb(0, 0, 0), rgb(255, 255, 255)); font-family: &amp;quot;Courier New&amp;quot;; text-align: left;&quot;&gt;&amp;lt;50&lt;/span&gt;&lt;/b&gt;" style="text;whiteSpace=wrap;html=1;" vertex="1" parent="2mVbCAliY_CCTs2_K3Rx-251">
          <mxGeometry x="22.58278145695364" y="89.99017695049795" width="93" height="72.40535894389116" as="geometry" />
        </mxCell>
        <mxCell id="2mVbCAliY_CCTs2_K3Rx-255" value="&lt;span style=&quot;font-style: normal; font-variant-ligatures: normal; font-variant-caps: normal; letter-spacing: normal; orphans: 2; text-align: left; text-indent: 0px; text-transform: none; widows: 2; word-spacing: 0px; -webkit-text-stroke-width: 0px; white-space: nowrap; text-decoration-thickness: initial; text-decoration-style: initial; text-decoration-color: initial; float: none; display: inline !important;&quot;&gt;&lt;font face=&quot;Courier New&quot; style=&quot;color: rgb(76, 0, 153);&quot;&gt;&lt;b style=&quot;&quot;&gt;GlobalConstraints&lt;/b&gt;&lt;/font&gt;&lt;/span&gt;" style="text;whiteSpace=wrap;html=1;shadow=1;" vertex="1" parent="2mVbCAliY_CCTs2_K3Rx-251">
          <mxGeometry x="6.199999999999999" y="5.4304019207918355" width="68.2" height="41.63308139273741" as="geometry" />
        </mxCell>
        <mxCell id="2mVbCAliY_CCTs2_K3Rx-256" value="&lt;div&gt;&lt;b style=&quot;forced-color-adjust: none; color: rgb(0, 0, 0); font-family: Helvetica; font-size: 12px; font-style: normal; font-variant-ligatures: normal; font-variant-caps: normal; letter-spacing: normal; orphans: 2; text-indent: 0px; text-transform: none; widows: 2; word-spacing: 0px; -webkit-text-stroke-width: 0px; white-space: nowrap; text-decoration-thickness: initial; text-decoration-style: initial; text-decoration-color: initial;&quot;&gt;&lt;span style=&quot;forced-color-adjust: none; color: light-dark(rgb(0, 0, 0), rgb(255, 255, 255)); font-family: &amp;quot;Courier New&amp;quot;;&quot;&gt;&lt;b style=&quot;font-family: Helvetica;&quot;&gt;&lt;span style=&quot;color: light-dark(rgb(0, 0, 0), rgb(255, 255, 255)); font-family: &amp;quot;Courier New&amp;quot;;&quot;&gt;0&amp;lt;e&lt;/span&gt;&lt;sub style=&quot;color: light-dark(rgb(0, 0, 0), rgb(255, 255, 255)); font-family: &amp;quot;Courier New&amp;quot;; line-height: 13px;&quot;&gt;1&lt;/sub&gt;&lt;span style=&quot;color: light-dark(rgb(0, 0, 0), rgb(255, 255, 255)); font-family: &amp;quot;Courier New&amp;quot;;&quot;&gt;-e&lt;/span&gt;&lt;sub style=&quot;color: light-dark(rgb(0, 0, 0), rgb(255, 255, 255)); font-family: &amp;quot;Courier New&amp;quot;; line-height: 13px;&quot;&gt;0&lt;/sub&gt;&lt;span style=&quot;color: light-dark(rgb(0, 0, 0), rgb(255, 255, 255)); font-family: &amp;quot;Courier New&amp;quot;;&quot;&gt;&amp;lt;2&lt;/span&gt;&lt;/b&gt;&lt;/span&gt;&lt;/b&gt;&lt;/div&gt;&lt;b style=&quot;forced-color-adjust: none; color: rgb(0, 0, 0); font-family: Helvetica; font-size: 12px; font-style: normal; font-variant-ligatures: normal; font-variant-caps: normal; letter-spacing: normal; orphans: 2; text-indent: 0px; text-transform: none; widows: 2; word-spacing: 0px; -webkit-text-stroke-width: 0px; white-space: nowrap; text-decoration-thickness: initial; text-decoration-style: initial; text-decoration-color: initial;&quot;&gt;&lt;span style=&quot;forced-color-adjust: none; color: light-dark(rgb(0, 0, 0), rgb(255, 255, 255)); font-family: &amp;quot;Courier New&amp;quot;;&quot;&gt;0&amp;lt;(e&lt;/span&gt;&lt;sub style=&quot;forced-color-adjust: none; color: light-dark(rgb(0, 0, 0), rgb(255, 255, 255)); font-family: &amp;quot;Courier New&amp;quot;; line-height: 13px;&quot;&gt;10&lt;/sub&gt;&lt;span style=&quot;forced-color-adjust: none; color: light-dark(rgb(0, 0, 0), rgb(255, 255, 255)); font-family: &amp;quot;Courier New&amp;quot;;&quot;&gt;-e&lt;/span&gt;&lt;sub style=&quot;forced-color-adjust: none; color: light-dark(rgb(0, 0, 0), rgb(255, 255, 255)); font-family: &amp;quot;Courier New&amp;quot;; line-height: 13px;&quot;&gt;3&lt;/sub&gt;&lt;span style=&quot;forced-color-adjust: none; color: light-dark(rgb(0, 0, 0), rgb(255, 255, 255)); font-family: &amp;quot;Courier New&amp;quot;;&quot;&gt;)&lt;b style=&quot;color: rgb(51, 51, 51); font-size: 15px; text-wrap-mode: wrap;&quot;&gt;↑&amp;lt;&lt;/b&gt;50&lt;/span&gt;&lt;/b&gt;" style="text;whiteSpace=wrap;html=1;align=center;" vertex="1" parent="2mVbCAliY_CCTs2_K3Rx-251">
          <mxGeometry x="8.830132450331126" y="29.585809232480532" width="106.75496688741723" height="49.310344827586206" as="geometry" />
        </mxCell>
        <mxCell id="2mVbCAliY_CCTs2_K3Rx-257" value="&lt;font size=&quot;1&quot; style=&quot;color: rgb(153, 76, 0);&quot;&gt;&lt;b style=&quot;font-size: 13px;&quot;&gt;int ( p = 1 )&lt;/b&gt;&lt;/font&gt;" style="text;html=1;align=center;verticalAlign=middle;resizable=0;points=[];autosize=1;strokeColor=none;fillColor=none;" vertex="1" parent="1">
          <mxGeometry x="-18286" y="-10924" width="83" height="28" as="geometry" />
        </mxCell>
        <mxCell id="2mVbCAliY_CCTs2_K3Rx-258" value="&lt;font size=&quot;1&quot; style=&quot;color: rgb(153, 76, 0);&quot;&gt;&lt;b style=&quot;font-size: 13px;&quot;&gt;int ( p = 2 )&lt;/b&gt;&lt;/font&gt;" style="text;html=1;align=center;verticalAlign=middle;resizable=0;points=[];autosize=1;strokeColor=none;fillColor=none;" vertex="1" parent="1">
          <mxGeometry x="-18284.5" y="-10786" width="83" height="28" as="geometry" />
        </mxCell>
      </root>
    </mxGraphModel>
  </diagram>
</mxfile>
